<svg version="1.1" viewBox="0 0 24 24" xmlns="http://www.w3.org/2000/svg">
  <path d="M 3.9840144,7.6 C 3.6956527,7.6 3.45552,7.8863016 3.3877404,8.2769231 H 2.3538462 C 1.6024615,8.2769231 1,8.8793846 1,9.6307692 v 4.7384618 h 1.3538462 c 0,1.121594 0.9091753,2.030769 2.0307692,2.030769 1.1215938,0 2.0307692,-0.909175 2.0307692,-2.030769 h 3.0461539 c 0,1.121594 0.9091755,2.030769 2.0307695,2.030769 1.121594,0 2.030769,-0.909175 2.030769,-2.030769 h 3.046154 c 0,1.121594 0.909175,2.030769 2.030769,2.030769 1.121594,0 2.030769,-0.909175 2.030769,-2.030769 H 23 V 9.6307692 C 23,8.8793846 22.397538,8.2769231 21.646154,8.2769231 H 18.243029 C 18.175249,7.8862904 17.935113,7.6 17.646755,7.6 h -5.539664 c -0.288361,0 -0.528494,0.2863016 -0.596274,0.6769231 H 8.7647836 C 8.6970042,7.8862904 8.4568673,7.6 8.1685096,7.6 Z M 2.0153846,9.2923077 H 4.7230769 V 12 H 2.0153846 Z m 3.7230769,0 H 8.4461538 V 12 H 5.7384615 Z m 7.1076925,0 h 2.707692 V 12 h -2.707692 z m 3.723077,0 h 2.707692 V 12 h -2.707692 z m 3.723077,0 h 1.692307 V 13.353846 H 20.292308 Z M 4.3846154,13.353846 c 0.5607814,0 1.0153846,0.454603 1.0153846,1.015385 0,0.04291 -0.00409,0.08541 -0.00925,0.126923 -7.243e-4,0.0058 -0.00183,0.01142 -0.00264,0.01719 -0.00441,0.03102 -0.010043,0.06117 -0.017188,0.09122 -0.00393,0.01774 -0.00834,0.03537 -0.013221,0.05288 -0.00799,0.027 -0.017638,0.05332 -0.027764,0.07933 -0.00303,0.0078 -0.00472,0.01613 -0.00793,0.0238 -4.38e-4,0.0014 -8.821e-4,0.0026 -0.00132,0.004 -0.014881,0.03519 -0.03296,0.06878 -0.051562,0.101803 -0.00556,0.0098 -0.011297,0.01949 -0.017188,0.02909 -0.016877,0.02774 -0.034829,0.05474 -0.054207,0.08065 -0.0043,0.0058 -0.00881,0.01154 -0.013221,0.01719 -0.025626,0.0328 -0.05258,0.06448 -0.081971,0.09387 -0.029391,0.02939 -0.061071,0.05635 -0.09387,0.08197 -0.00565,0.0044 -0.011444,0.0089 -0.017187,0.01322 -0.025911,0.01938 -0.052909,0.03733 -0.080649,0.05421 -0.0096,0.0059 -0.019296,0.01162 -0.029087,0.01719 -0.033024,0.0186 -0.066619,0.03668 -0.1018029,0.05156 -0.00132,4.44e-4 -0.00264,8.49e-4 -0.00397,0.0013 -0.00767,0.0032 -0.016034,0.0049 -0.023798,0.0079 -0.02601,0.01013 -0.052328,0.01977 -0.079327,0.02776 -0.017507,0.0049 -0.035141,0.0093 -0.052885,0.01322 -0.030053,0.0071 -0.060204,0.01278 -0.091226,0.01719 -0.00403,5.73e-4 -0.00785,0.0021 -0.011899,0.0026 -0.00176,5e-6 -0.00353,5e-6 -0.00529,0 -0.041512,0.0051 -0.084012,0.0093 -0.1269231,0.0093 -0.042912,0 -0.085411,-0.0041 -0.1269231,-0.0093 h -0.00132 -0.00132 -0.00132 -0.00132 c -0.00397,-8.8e-4 -0.00794,-0.0018 -0.011899,-0.0026 -0.031023,-0.0044 -0.061172,-0.01005 -0.091226,-0.01719 -0.017744,-0.0039 -0.035378,-0.0083 -0.052885,-0.01322 -0.026998,-0.008 -0.053318,-0.01764 -0.079327,-0.02776 -0.00797,-0.0026 -0.015898,-0.0052 -0.023798,-0.0079 -0.00128,-5.35e-4 -0.00269,-7.81e-4 -0.00397,-0.0013 -0.035184,-0.01488 -0.068778,-0.03296 -0.1018029,-0.05156 -0.00979,-0.0056 -0.019487,-0.0113 -0.029087,-0.01719 -0.02774,-0.01688 -0.054738,-0.03483 -0.080649,-0.05421 -0.00577,-0.0043 -0.011505,-0.0088 -0.017187,-0.01322 -0.0328,-0.02563 -0.064479,-0.05258 -0.09387,-0.08197 -0.029391,-0.02939 -0.056345,-0.06107 -0.081971,-0.09387 -0.00447,-0.0057 -0.00888,-0.01141 -0.013221,-0.01719 -0.019378,-0.02591 -0.03733,-0.05291 -0.054207,-0.08065 -0.00589,-0.0096 -0.01162,-0.0193 -0.017188,-0.02909 -0.018602,-0.03303 -0.036681,-0.06662 -0.051562,-0.101803 -5.396e-4,-0.0013 -7.873e-4,-0.0027 -0.00132,-0.004 -0.00274,-0.0079 -0.00539,-0.01583 -0.00793,-0.0238 -0.010126,-0.02601 -0.019771,-0.05233 -0.027764,-0.07933 -0.00488,-0.0175 -0.00929,-0.03514 -0.013221,-0.05288 -0.00714,-0.03005 -0.012781,-0.0602 -0.017188,-0.09122 -9.274e-4,-0.0058 -0.00181,-0.01145 -0.00264,-0.01719 -0.00517,-0.04145 -0.00925,-0.08401 -0.00925,-0.126923 0,-0.560782 0.4546032,-1.015385 1.0153846,-1.015385 z m 7.1076926,0 c 0.560783,0 1.015384,0.454601 1.015384,1.015385 0,0.560783 -0.454601,1.015384 -1.015384,1.015384 -0.560784,0 -1.015385,-0.454601 -1.015385,-1.015384 0,-0.560784 0.454601,-1.015385 1.015385,-1.015385 z m 7.107692,0 c 0.560783,0 1.015385,0.454601 1.015385,1.015385 0,0.560783 -0.454602,1.015384 -1.015385,1.015384 -0.560783,0 -1.015385,-0.454601 -1.015385,-1.015384 0,-0.560784 0.454602,-1.015385 1.015385,-1.015385 z" style="stroke-width:0.676923" />
</svg>
