<svg version="1.1" viewBox="0 0 24 24" xmlns="http://www.w3.org/2000/svg">
  <path style="stroke-width:0.676923" d="M 1,5.907 6.8027644,9.9685385 H 2.3538462 C 1.6024644,9.9685385 1,10.570999 1,11.322385 v 4.738461 h 1.3538462 c 0,1.121589 0.9091772,2.030769 2.0307692,2.030769 1.1215955,0 2.0307692,-0.90918 2.0307692,-2.030769 h 3.0461539 c 0,1.121589 0.9091805,2.030769 2.0307695,2.030769 1.121589,0 2.030769,-0.90918 2.030769,-2.030769 h 3.046154 c 0,1.121589 0.909181,2.030769 2.030769,2.030769 1.121588,0 2.030769,-0.90918 2.030769,-2.030769 H 23 V 11.322385 C 23,10.570999 22.397559,9.9685385 21.646154,9.9685385 h -0.01851 C 21.55987,9.5779059 21.319738,9.2916154 21.03137,9.2916154 h -5.539663 c -0.288371,0 -0.528462,0.2863034 -0.596274,0.6769231 H 12.149399 C 12.081621,9.5779059 11.841486,9.2916154 11.553125,9.2916154 H 8.4051682 c -0.2871284,0 -0.5259963,0.2835757 -0.5949518,0.6716346 L 2.0153846,5.907 Z m 1.0153846,5.076923 h 2.7076923 v 2.707692 H 2.0153846 Z m 3.7230769,0 h 2.7076923 v 2.707692 H 5.7384615 Z m 7.1076925,0 h 2.707692 v 2.707692 h -2.707692 z m 3.723077,0 h 2.707692 v 2.707692 h -2.707692 z m 3.723077,0 h 1.692307 v 4.061539 H 20.292308 Z M 4.3832933,15.045462 h 0.00132 c 0.5607812,0 1.0153846,0.454603 1.0153846,1.015384 0,0.04287 -0.00418,0.08547 -0.00925,0.126923 -7.243e-4,0.0049 -0.00196,0.01129 -0.00264,0.01719 -0.00441,0.03098 -0.010059,0.06124 -0.017188,0.09123 -0.00401,0.01772 -0.00842,0.03536 -0.013221,0.05288 -0.00812,0.0269 -0.017639,0.05326 -0.027764,0.07933 -0.0029,0.0066 -0.00453,0.01595 -0.00793,0.0238 -4.383e-4,0.0012 -6.994e-4,0.0027 -0.00132,0.004 -0.014894,0.03519 -0.03298,0.06868 -0.051562,0.101804 -0.00573,0.0082 -0.011289,0.01961 -0.017188,0.02909 -0.016887,0.02788 -0.034832,0.05466 -0.054207,0.08065 -0.00432,0.0049 -0.00881,0.01139 -0.013221,0.01719 -0.025619,0.03283 -0.052566,0.06432 -0.081971,0.09387 -0.029406,0.02926 -0.061082,0.05658 -0.09387,0.08197 -0.0058,0.0037 -0.011449,0.0075 -0.017187,0.01322 -0.025919,0.01945 -0.052892,0.03721 -0.080649,0.05421 -0.00957,0.0049 -0.019314,0.01145 -0.029087,0.01719 -0.03302,0.0185 -0.066625,0.03695 -0.1018029,0.05156 -7.311e-4,2.22e-4 -0.00332,0.0011 -0.00397,0.0013 -0.0075,0.0027 -0.016045,0.0041 -0.023798,0.0066 -0.026002,0.01027 -0.052319,0.01964 -0.079327,0.02777 -0.017519,0.0041 -0.035164,0.0078 -0.052885,0.01322 -0.030067,0.006 -0.06021,0.01278 -0.091226,0.01719 -0.00409,5.72e-4 -0.008,9.16e-4 -0.011899,0.0013 -0.00183,5e-6 -0.00381,5e-6 -0.00529,0 -0.041523,0.0043 -0.084016,0.0079 -0.1269231,0.0079 -0.04291,0 -0.085404,-0.0036 -0.1269231,-0.0079 h -0.00132 -0.00132 -0.00132 -0.00132 c -0.00404,-8.12e-4 -0.00808,-6.45e-4 -0.011899,-0.0013 -0.031023,-0.0037 -0.061164,-0.01011 -0.091226,-0.01719 -0.017756,-0.0032 -0.035398,-0.007 -0.052885,-0.01322 -0.027008,-0.0067 -0.053291,-0.0175 -0.079327,-0.02777 -0.0081,-0.0022 -0.015895,-0.0044 -0.023798,-0.0066 -0.00143,-5.34e-4 -0.00386,-0.0011 -0.00529,-0.0013 -0.035187,-0.01497 -0.068791,-0.03312 -0.1018029,-0.05156 -0.00976,-0.0047 -0.019509,-0.01118 -0.029087,-0.01719 -0.027737,-0.017 -0.054731,-0.03476 -0.080649,-0.05421 -0.0059,-0.0036 -0.011499,-0.0074 -0.017187,-0.01322 -0.032797,-0.02575 -0.064472,-0.05271 -0.09387,-0.08197 -0.029405,-0.02926 -0.056327,-0.06111 -0.081971,-0.09387 -0.00446,-0.0048 -0.00887,-0.01128 -0.013221,-0.01719 -0.019375,-0.02599 -0.037355,-0.05277 -0.054207,-0.08065 -0.006,-0.0081 -0.01163,-0.01945 -0.017188,-0.02909 -0.018615,-0.03303 -0.036704,-0.06652 -0.051562,-0.101804 -2.7e-4,-5.41e-4 2.134e-4,-0.0021 0,-0.0026 l -0.00132,-0.0013 c -0.00265,-0.0066 -0.0051,-0.0157 -0.00793,-0.0238 -0.010125,-0.02608 -0.019783,-0.05243 -0.027764,-0.07933 -0.00481,-0.01752 -0.00926,-0.03517 -0.013221,-0.05288 -0.00705,-0.03017 -0.012781,-0.06007 -0.017187,-0.09123 -8.394e-4,-0.0049 -0.00195,-0.01131 -0.00264,-0.01719 -0.00505,-0.04151 -0.00925,-0.08394 -0.00925,-0.126923 0,-0.560781 0.4546033,-1.015384 1.0153846,-1.015384 z m 7.1090147,0 c 0.560782,0 1.015384,0.454601 1.015384,1.015384 0,0.560783 -0.454602,1.015385 -1.015384,1.015385 -0.560784,0 -1.015385,-0.454602 -1.015385,-1.015385 0,-0.560783 0.454601,-1.015384 1.015385,-1.015384 z m 7.107692,0 c 0.560783,0 1.015385,0.454601 1.015385,1.015384 0,0.560783 -0.454602,1.015385 -1.015385,1.015385 -0.560783,0 -1.015385,-0.454602 -1.015385,-1.015385 0,-0.560783 0.454602,-1.015384 1.015385,-1.015384 z" />
  <path d="m 10.808613,2.7450444 4.417805,6.6910459" />
</svg>
