<svg version="1.1" viewBox="0 0 24 24" xmlns="http://www.w3.org/2000/svg">
 <path d="m4 6c-1.11 0-2 0.89-2 2v7h2c0 1.6569 1.3431 3 3 3s3-1.3431 3-3h4.5c0 1.6569 1.3431 3 3 3s3-1.3431 3-3h1.5v-2.5c0-1.11-0.89-2-2-2h-2.5v-2.5c0-1.1932-0.81136-2-2-2h-11.5m-0.5 1.5h3v4h-3v-4m4.5 0h3v4h-3v-4m7 0v6l-2.5-1.2e-5v-6m-5.5 6c0.82843 0 1.5 0.67157 1.5 1.5s-0.67157 1.5-1.5 1.5-1.5-0.67157-1.5-1.5 0.67157-1.5 1.5-1.5m10.5 0c0.82843 0 1.5 0.67157 1.5 1.5s-0.67157 1.5-1.5 1.5-1.5-0.67157-1.5-1.5 0.67157-1.5 1.5-1.5z"/>
</svg>
