<svg version="1.1" viewBox="0 0 24 24" xmlns="http://www.w3.org/2000/svg">
  <g transform="translate(0,24.897)">
    <path d="m 3,-15.897 c -1.11,0 -2,0.89 -2,2 v 7 h 2 c 0,1.6569 1.3431,3 3,3 1.6569,0 3,-1.3431 3,-3 h 4.5 c 0,1.6569 1.3431,3 3,3 1.6569,0 3,-1.3431 3,-3 H 23 v -7 c 0,-1.11 -0.89,-2 -2,-2 H 3 m -0.5,1.5 h 4 v 4 h -4 v -4 m 5.5,0 h 4 v 4 H 8 v -4 m 5.5,0 h 4 v 4 h -4 v -4 m 5.5,0 h 2.5 v 6 H 19 v -6 m -13,6 c 0.82843,0 1.5,0.67157 1.5,1.5 0,0.82843 -0.67157,1.5 -1.5,1.5 -0.82843,0 -1.5,-0.67157 -1.5,-1.5 0,-0.82843 0.67157,-1.5 1.5,-1.5 m 10.5,0 c 0.82843,0 1.5,0.67157 1.5,1.5 0,0.82843 -0.67157,1.5 -1.5,1.5 -0.82843,0 -1.5,-0.67157 -1.5,-1.5 0,-0.82843 0.67157,-1.5 1.5,-1.5 z" />
    <path d="M 11.90909,-16.897 C 11.40454,-16.897 11,-16.30367 11,-15.5637 v 0.66667 h 10 v -0.66667 c 0,-0.74 -0.40455,-1.3333 -0.90909,-1.3333 h -8.1818" stroke-width="0.55048" />
    <path d="M 2.5,-21.897 H 1 l 10,7 h 1.5 z" />
  </g>
</svg>
