<svg version="1.1" viewBox="0 0 24 24" xmlns="http://www.w3.org/2000/svg">
 <g transform="translate(0 22.897)">
  <path d="m3-15.897c-1.11 0-2 0.89-2 2v7h2c0 1.6569 1.3431 3 3 3s3-1.3431 3-3h4.5c0 1.6569 1.3431 3 3 3s3-1.3431 3-3h3.5v-7c0-1.11-0.89-2-2-2h-18m-0.5 1.5h4v4h-4v-4m5.5 0h4v4h-4v-4m5.5 0h4v4h-4v-4m5.5 0h2.5v6h-2.5v-6m-13 6c0.82843 0 1.5 0.67157 1.5 1.5s-0.67157 1.5-1.5 1.5-1.5-0.67157-1.5-1.5 0.67157-1.5 1.5-1.5m10.5 0c0.82843 0 1.5 0.67157 1.5 1.5s-0.67157 1.5-1.5 1.5-1.5-0.67157-1.5-1.5 0.67157-1.5 1.5-1.5z"/>
  <path d="m6.9091-16.897c-0.50455 0-0.90909 0.59333-0.90909 1.3333v0.66667h10v-0.66667c0-0.74-0.40455-1.3333-0.90909-1.3333h-8.1818" stroke-width=".55048"/>
 </g>
</svg>
