<?xml version="1.0" encoding="UTF-8" standalone="no"?>
<svg
   version="1.1"
   viewBox="0 0 24 24"
   id="svg16"
   sodipodi:docname="bctracker.svg"
   inkscape:version="1.1 (c68e22c387, 2021-05-23)"
   xmlns:inkscape="http://www.inkscape.org/namespaces/inkscape"
   xmlns:sodipodi="http://sodipodi.sourceforge.net/DTD/sodipodi-0.dtd"
   xmlns="http://www.w3.org/2000/svg"
   xmlns:svg="http://www.w3.org/2000/svg">
  <defs
     id="defs20" />
  <sodipodi:namedview
     id="namedview18"
     pagecolor="#ffffff"
     bordercolor="#666666"
     borderopacity="1.0"
     inkscape:pageshadow="2"
     inkscape:pageopacity="0.0"
     inkscape:pagecheckerboard="0"
     showgrid="false"
     inkscape:zoom="44.488802"
     inkscape:cx="10.845426"
     inkscape:cy="17.060473"
     inkscape:window-width="1920"
     inkscape:window-height="1009"
     inkscape:window-x="0"
     inkscape:window-y="0"
     inkscape:window-maximized="1"
     inkscape:current-layer="svg16" />
  <g
     transform="matrix(.10004 0 0 .1 2 -.49997)"
     id="g14">
    <path
       id="path2"
       style="stroke-width:0.0264633"
       d="M 2 12 L 2 22 L 22.007812 22 L 22.007812 12 L 2 12 z M 7.5683594 13.132812 L 9.3125 13.132812 L 11.875 19.886719 L 10.412109 19.886719 L 9.7871094 18.162109 L 7.0996094 18.162109 L 6.4726562 19.886719 L 4.9960938 19.886719 L 7.5683594 13.132812 z M 12.832031 13.132812 L 16.060547 13.132812 C 16.921671 13.132812 17.573096 13.276881 18.013672 13.564453 C 18.457585 13.84883 18.679688 14.270911 18.679688 14.830078 C 18.679688 15.213507 18.567375 15.537529 18.34375 15.802734 C 18.123462 16.064744 17.785957 16.243276 17.332031 16.335938 C 17.902777 16.399842 18.335758 16.572334 18.632812 16.853516 C 18.933205 17.131502 19.083984 17.500823 19.083984 17.960938 C 19.083984 18.574424 18.843909 19.047312 18.363281 19.382812 C 17.882654 19.718313 17.215777 19.886719 16.361328 19.886719 L 12.832031 19.886719 L 12.832031 13.132812 z M 8.4414062 14.173828 L 8.4101562 14.279297 C 8.3767793 14.394326 8.3377433 14.524894 8.2910156 14.671875 C 8.2442879 14.818856 7.9570429 15.627845 7.4296875 17.097656 L 9.4570312 17.097656 L 8.7617188 15.15625 L 8.5449219 14.503906 L 8.4414062 14.173828 z M 14.308594 14.183594 L 14.308594 15.855469 L 16 15.855469 C 16.417212 15.855469 16.719339 15.787786 16.90625 15.650391 C 17.096498 15.5098 17.191406 15.29947 17.191406 15.021484 C 17.191406 14.717936 17.090318 14.50281 16.886719 14.375 C 16.686457 14.24719 16.38742 14.183594 15.990234 14.183594 L 14.308594 14.183594 z M 14.308594 16.900391 L 14.308594 18.837891 L 16.236328 18.837891 C 16.71028 18.837891 17.054534 18.754754 17.271484 18.591797 C 17.491772 18.425644 17.601562 18.178719 17.601562 17.849609 C 17.601562 17.216952 17.127592 16.900391 16.179688 16.900391 L 14.308594 16.900391 z "
       transform="matrix(9.9960016,0,0,10,-19.992003,4.9997)" />
    <rect
       x="10"
       y="205"
       width="40"
       height="40"
       id="rect4" />
    <rect
       x="150"
       y="205"
       width="40"
       height="40"
       id="rect6" />
    <path
       d="m0 25v105h20v-85h20v-25h120v25h20v85h20v-105s0.63145-19.913-100-20c-100.63-0.087477-100 20-100 20z"
       id="path8" />
    <rect
       x="25"
       y="5"
       width="150"
       height="10"
       id="rect10" />
    <path
       d="m35 45h130v-10h-130z"
       id="path12" />
  </g>
</svg>
