<svg version="1.1" viewBox="0 0 24 24" xmlns="http://www.w3.org/2000/svg">
 <g transform="matrix(.10004 0 0 .1 2 -.49997)">
  <path transform="scale(.26458)" d="m0 472.44v377.95h755.91v-377.95zm553.66 37.795c16.064 0 31.483 1.595 46.262 4.7832s28.98 7.9132 42.602 14.176v52.775c-13.75-8.3122-27.309-14.404-40.674-18.275-13.365-3.8714-27.436-5.8066-42.215-5.8066-26.473 0-47.291 7.5147-62.455 22.545-15.164 15.03-22.746 35.755-22.746 62.172 0 26.303 7.5821 46.97 22.746 62 15.164 15.03 35.982 22.545 62.455 22.545 14.778 0 28.85-1.9352 42.215-5.8066 13.365-3.8714 26.923-9.9632 40.674-18.275v52.775c-13.622 6.2626-27.823 10.99-42.602 14.178-14.778 3.1882-30.198 4.7812-46.262 4.7812-47.934 0-85.909-11.841-113.92-35.525-28.015-23.798-42.021-56.022-42.021-96.672 0-40.764 14.007-72.988 42.021-96.672 28.015-23.798 65.99-35.697 113.92-35.697zm-440.27 4.6113h111.42c39.966 0 68.88 5.3513 86.742 16.055 17.991 10.703 26.988 27.84 26.988 51.41 0 12.411-3.2781 23.002-9.832 31.77-6.5539 8.6538-16.064 15.088-28.529 19.301 15.935 4.0992 28.273 11.67 37.012 22.715 8.7386 11.045 13.107 24.595 13.107 40.65 0 24.595-9.3804 42.928-28.143 54.998s-47.292 18.104-85.588 18.104h-123.17zm74.213 44.75v53.971h41.059c11.694 0 20.562-2.2754 26.602-6.8301 6.0399-4.5546 9.0586-11.273 9.0586-20.154 0-8.7676-3.0187-15.43-9.0586-19.984-6.0399-4.6685-14.907-7.002-26.602-7.002zm0 98.721v66.783h43.564c14.907 0 26.088-2.7897 33.541-8.3691 7.582-5.5794 11.373-14.007 11.373-25.279 0-11.045-3.7282-19.3-11.182-24.766-7.4535-5.5794-18.697-8.3691-33.732-8.3691z"/>
  <rect x="10" y="205" width="40" height="40"/>
  <rect x="150" y="205" width="40" height="40"/>
  <path d="m0 25v105h20v-85h20v-25h120v25h20v85h20v-105s0.63145-19.913-100-20c-100.63-0.087477-100 20-100 20z"/>
  <rect x="25" y="5" width="150" height="10"/>
  <path d="m35 45h130v-10h-130z"/>
 </g>
</svg>
