<svg xmlns="http://www.w3.org/2000/svg" viewBox="0 0 24 24">
   <path
      style="fill-opacity:1;stroke:none;stroke-width:0;stroke-miterlimit:4;stroke-dasharray:none;stroke-opacity:1"
      d="M 0,472.44141 V 850.39453 H 755.90625 V 472.44141 Z m 553.65625,37.79492 c 16.06355,0 31.48325,1.59496 46.26172,4.7832 14.77847,3.18824 28.97967,7.91317 42.60156,14.17578 v 52.77539 c -13.7504,-8.31219 -27.30895,-14.40396 -40.67383,-18.27539 -13.36487,-3.87143 -27.43637,-5.80664 -42.21484,-5.80664 -26.47273,0 -47.29109,7.51466 -62.45508,22.54492 -15.16399,15.03027 -22.74609,35.75505 -22.74609,62.17188 0,26.30296 7.5821,46.96973 22.74609,62 15.16399,15.03026 35.98235,22.54492 62.45508,22.54492 14.77847,0 28.84997,-1.93521 42.21484,-5.80664 13.36488,-3.87143 26.92343,-9.9632 40.67383,-18.27539 v 52.77539 c -13.62189,6.26261 -27.82309,10.9895 -42.60156,14.17773 -14.77847,3.18824 -30.19817,4.78125 -46.26172,4.78125 -47.93364,0 -85.90899,-11.84133 -113.92383,-35.52539 -28.01483,-23.79792 -42.02148,-56.02183 -42.02148,-96.67187 0,-40.7639 14.00665,-72.98782 42.02148,-96.67188 28.01484,-23.79792 65.99019,-35.69726 113.92383,-35.69726 z m -440.26953,4.61133 h 111.41601 c 39.96612,0 68.87952,5.35131 86.74219,16.05468 17.99118,10.70337 26.98828,27.83997 26.98828,51.41016 0,12.41136 -3.2781,23.00188 -9.83203,31.76953 -6.55393,8.65379 -16.06398,15.08775 -28.52929,19.30078 15.93504,4.09917 28.27314,11.66988 37.01171,22.71485 8.73858,11.04496 13.10743,24.59533 13.10743,40.65039 0,24.59498 -9.38035,42.92828 -28.14258,54.99804 -18.76223,12.06976 -47.29239,18.10352 -85.58789,18.10352 H 113.38672 Z m 74.21289,44.75 v 53.9707 h 41.05859 c 11.69427,0 20.56167,-2.27545 26.60157,-6.83008 6.03989,-4.55462 9.05859,-11.27277 9.05859,-20.1543 0,-8.76765 -3.0187,-15.42974 -9.05859,-19.98437 -6.0399,-4.66849 -14.9073,-7.00195 -26.60157,-7.00195 z m 0,98.7207 v 66.7832 h 43.56445 c 14.90698,0 26.08753,-2.78972 33.54102,-8.36914 7.58199,-5.57941 11.37304,-14.0066 11.37304,-25.2793 0,-11.04496 -3.72815,-19.30007 -11.18164,-24.76562 -7.45348,-5.57942 -18.69693,-8.36914 -33.73242,-8.36914 z"
      transform="scale(0.26458333)" />
   <rect
      style="fill-opacity:1;stroke:none;stroke-width:0;stroke-miterlimit:4;stroke-dasharray:none;stroke-opacity:1"
      width="40"
      height="40"
      x="10.000001"
      y="205" />
   <rect
      style="fill-opacity:1;stroke:none;stroke-width:0;stroke-miterlimit:4;stroke-dasharray:none;stroke-opacity:1"
      width="40"
      height="40"
      x="150"
      y="205" />
   <path
      style="fill-opacity:1;stroke:none;stroke-width:0;stroke-linecap:butt;stroke-linejoin:miter;stroke-miterlimit:4;stroke-dasharray:none;stroke-opacity:1"
      d="M 0,25 V 130 H 20 V 45 H 40 V 20 h 120 v 25 h 20 v 85 h 20 V 25 C 200,25 200.63145,5.0874767 100,5 -0.6314465,4.9125233 0,25 0,25 Z" />
   <rect
      style="fill-opacity:1;stroke:none;stroke-width:0;stroke-miterlimit:4;stroke-dasharray:none;stroke-opacity:1"
      width="150"
      height="10"
      x="25"
      y="5" />
   <path
      style="fill-opacity:1;stroke:none;stroke-width:0.264583px;stroke-linecap:butt;stroke-linejoin:miter;stroke-opacity:1"
      d="M 35,45 H 165 V 35 H 35 Z" />
</svg>
