<svg version="1.1" viewBox="0 0 24 24" xmlns="http://www.w3.org/2000/svg">
 <g transform="translate(0,-1)">
  <path d="m3 4c-1.11 0-2 0.89-2 2v13h2c0 1.6569 1.3431 3 3 3s3-1.3431 3-3h4.5c0 1.6569 1.3431 3 3 3s3-1.3431 3-3h3.5v-13c0-1.11-0.89-2-2-2h-18m-0.5 1.5h4v10h-4v-10m5.5 0h4v10h-4v-10m5.5 0h4v10h-4v-10m5.5 0h2.5v12h-2.5v-12m-13 12c0.82843 0 1.5 0.67157 1.5 1.5s-0.67157 1.5-1.5 1.5-1.5-0.67157-1.5-1.5 0.67157-1.5 1.5-1.5m10.5 0c0.82843 0 1.5 0.67157 1.5 1.5s-0.67157 1.5-1.5 1.5-1.5-0.67157-1.5-1.5 0.67157-1.5 1.5-1.5z"/>
  <path d="m1.5 9v3h21v-3z"/>
 </g>
</svg>
